<svg id="Layer_1" xmlns="http://www.w3.org/2000/svg" version="1.1" viewBox="0 0 1080 1080"><defs><style>.st0{fill:#fff;fill-rule:evenodd}.st1{fill:#ff5900}</style></defs><path class="st0" d="m570.39 654.36-250.44.21 1.8-8.83 182.51-5.23c34.98-1.33 68.97-3.17 101.87-14.39 67.43-22.51 121.16-68.42 136.98-125.27 16.94-60.93-22.04-120.21-95.47-125.33 62.21-18.21 115.26-57.64 129.38-108.4 18.34-65.91-14.84-99.22-70.88-111.44 93.21-1.46 166.09 29.88 141.28 119.05-14.12 50.76-68.41 89.37-130.25 106.22 72.59 5.41 112.4 74.57 93.17 134.81-20.04 62.74-70.65 101.72-138.07 124.22-32.91 11.21-66.89 13.06-101.88 14.39"/><path class="st0" d="m438.93 622.82-117.53 5.83c-.04-3.01.12-2.32-.23-5.22l297.71-88.06.99-10.76-304.13 78.62c-.94-2.88-1.03-2.09-2.27-4.81l318.32-176.25-3.21-8.8-325.25 168.16c-1.95-2.78-1.1-1.6-3.39-4.11l378.42-353.37-4.63-9.58-387.71 350.44c-1.84-1.31-3.02-2.24-4.98-3.41l277.42-399.32-11.68.1L262.85 553.2c-1.59-.55-3.35-1.03-4.99-1.49l164.87-390.13h-10.48L234.87 548.74c-2.19-.03-7.19.02-7.19.02l114.79-414.64 214.41.66c101.42-5.81 181.53 21.57 155.18 116.32-14.12 50.76-67.16 90.19-129 107.04l-.37 1.35c73.43 5.13 114.8 64.26 97.86 125.17-15.82 56.85-72.33 101.25-139.75 123.76-32.9 11.21-66.89 13.05-101.87 14.39"/><path class="st1" d="m570.39 654.36-250.44.21 1.8-8.83 182.51-5.23c34.98-1.33 68.97-3.17 101.87-14.39 67.43-22.51 121.16-68.42 136.98-125.27 16.94-60.93-22.04-120.21-95.47-125.33 62.21-18.21 115.26-57.64 129.38-108.4 18.34-65.91-14.84-99.22-70.88-111.44 93.21-1.46 166.09 29.88 141.28 119.05-14.12 50.76-68.41 89.37-130.25 106.22 72.59 5.41 112.4 74.57 93.17 134.81-20.04 62.74-70.65 101.72-138.07 124.22-32.91 11.21-66.89 13.06-101.88 14.39"/><path class="st1" d="m438.93 622.82-117.53 5.83c-.04-3.01.12-2.32-.23-5.22l297.71-88.06.99-10.76-304.13 78.62c-.94-2.88-1.03-2.09-2.27-4.81l318.32-176.25-3.21-8.8-325.25 168.16c-1.95-2.78-1.1-1.6-3.39-4.11l378.42-353.37-4.63-9.58-387.71 350.44c-1.84-1.31-3.02-2.24-4.98-3.41l277.42-399.32-11.68.1L262.85 553.2c-1.59-.55-3.35-1.03-4.99-1.49l164.87-390.13h-10.48L234.87 548.74c-2.19-.03-7.19.02-7.19.02l114.79-414.64 214.41.66c101.42-5.81 181.53 21.57 155.18 116.32-14.12 50.76-67.16 90.19-129 107.04l-.37 1.35c73.43 5.13 114.8 64.26 97.86 125.17-15.82 56.85-72.33 101.25-139.75 123.76-32.9 11.21-66.89 13.05-101.87 14.39"/><path class="st0" d="M302.13 896c-8.02 12.32-19.57 18.84-33.43 18.84h-.18c-9.42-.04-17.19-3.31-22.46-9.45-5.25-6.12-7.99-15.01-7.95-25.73.06-14.4 4.26-28.74 11.53-39.34 5.71-8.33 15.95-18.24 32.38-18.24h.17c19.94.08 30.87 12.28 30.78 34.33-.06 14.67-4.01 29.11-10.83 39.6Zm32.81-85.74c-11.85-11.92-28.95-18.27-49.45-18.35h-.44c-26.04 0-48.13 9.55-63.91 27.64-14.17 16.24-22.03 37.96-22.12 61.14-.08 19.08 5.9 35.22 17.29 46.67 11.64 11.69 28.66 17.89 49.23 17.91h.22c27.64 0 50.49-9.79 66.1-28.32 13.06-15.5 20.6-37.06 20.68-59.14.08-19.44-6.01-35.89-17.6-47.55ZM134.69 792.63h-.4c-23.36 0-36.48 8.49-45.16 17.2l-9.05 41.02c7.97-17.05 21.56-26.5 38.92-26.5h.2c9.87.04 17.37 3.04 22.27 8.9 4.58 5.48 6.88 13.36 6.84 23.44-.06 14.47-4.25 28.82-11.5 39.36-5.78 8.4-16.26 18.4-33.43 18.4h-.18c-10.68-.04-18.7-3.27-23.86-9.6-4.22-5.18-6.39-12.4-6.48-21.25l-9.43 42.74c4.84 8.48 16.12 19.5 42.02 19.61h.39c25.45 0 46.85-10.04 61.89-29.04 13.41-16.94 20.85-39.88 20.95-64.6.15-35.57-21.55-59.56-53.99-59.69ZM99.35 731.88H39.86l-7.08 32.87h21.37L15.52 942.04l37.42.16 46.41-210.32zM468.83 792.63h-.4c-23.36 0-36.48 8.49-45.16 17.2l-9.05 41.02c7.97-17.05 21.56-26.5 38.92-26.5h.2c9.88.04 17.37 3.04 22.27 8.9 4.58 5.48 6.88 13.36 6.84 23.44-.06 14.47-4.25 28.82-11.5 39.36-5.78 8.4-16.27 18.4-33.43 18.4h-.18c-10.68-.04-18.7-3.27-23.86-9.6-4.22-5.18-6.39-12.4-6.49-21.25l-9.43 42.74c4.84 8.48 16.12 19.5 42.02 19.61h.39c25.45 0 46.85-10.04 61.89-29.04 13.41-16.94 20.85-39.88 20.95-64.6.15-35.57-21.55-59.56-53.99-59.69ZM433.49 731.88h-59.5l-7.07 32.87h21.36l-38.62 177.29 37.42.16 46.41-210.32zM576.3 933.55l-5.12-137.95h24.24c.04 42.72 1.29 98.03-.23 112.5h.2c6.01-17.66 36.87-79.93 51.79-112.5h21.8c1.31 27.96 4.19 91.36 3.25 111.32h.2c5.99-17.72 25.7-59.13 48.47-111.32h24.28l-66.72 137.95h-25.25c-.82-28.3-3.29-82.92-2.91-104.53h-.2c-8.18 23.57-35.19 76.67-48.59 104.53h-25.19ZM752.15 893.61c0 15.2 6.72 23.31 18.68 23.31 21.1 0 29.81-27.6 29.81-46.45 0-14.65-6.2-22.83-18.9-22.83-20.38 0-29.59 27.46-29.59 45.97Zm72.8-21.14c0 25.11-14.5 63.07-56.58 63.07-27.28 0-40.62-16.82-40.62-42.01 0-27.84 17.46-64.51 55.88-64.51 24.18 0 41.32 14.3 41.32 43.45ZM845.12 861.38c2.14-10.05 4.19-20.9 5.93-30.36h22.68c-.2 2.59-1.36 11.15-3.21 19.64 7.16-13.04 17.65-21.64 34.77-21.64l-4.91 23.8c-18.99.65-32.67 12.42-37.46 35.02l-9.67 45.71h-23.5l15.38-72.17ZM898.56 933.55l30.84-145.89h23.5l-30.84 145.89h-23.5zM972.85 892.59c0 15.15 6.22 23.15 18.27 23.15 18.06 0 27.49-15.71 31.58-37.15 3.73-18.78-1.69-29.77-18.3-29.77-20.58 0-31.54 24.07-31.54 43.77Zm91.63-104.93-24.85 117.85c-2 9.43-4.13 18.79-5.72 28.04h-22.74c.2-3.51.96-7.95 1.99-13.52-6.64 9.75-16.4 15.51-31.15 15.51-21.96 0-33.75-15.92-33.75-40.4 0-30.9 18.57-66.13 54.18-66.13 15.53 0 24.81 7.04 27.08 12.52l11.47-53.88h23.5Z"/><path class="st1" d="M302.13 896c-8.02 12.32-19.57 18.84-33.43 18.84h-.18c-9.42-.04-17.19-3.31-22.46-9.45-5.25-6.12-7.99-15.01-7.95-25.73.06-14.4 4.26-28.74 11.53-39.34 5.71-8.33 15.95-18.24 32.38-18.24h.17c19.94.08 30.87 12.28 30.78 34.33-.06 14.67-4.01 29.11-10.83 39.6Zm32.81-85.74c-11.85-11.92-28.95-18.27-49.45-18.35h-.44c-26.04 0-48.13 9.55-63.91 27.64-14.17 16.24-22.03 37.96-22.12 61.14-.08 19.08 5.9 35.22 17.29 46.67 11.64 11.69 28.66 17.89 49.23 17.91h.22c27.64 0 50.49-9.79 66.1-28.32 13.06-15.5 20.6-37.06 20.68-59.14.08-19.44-6.01-35.89-17.6-47.55ZM134.69 792.63h-.4c-23.36 0-36.48 8.49-45.16 17.2l-9.05 41.02c7.97-17.05 21.56-26.5 38.92-26.5h.2c9.87.04 17.37 3.04 22.27 8.9 4.58 5.48 6.88 13.36 6.84 23.44-.06 14.47-4.25 28.82-11.5 39.36-5.78 8.4-16.26 18.4-33.43 18.4h-.18c-10.68-.04-18.7-3.27-23.86-9.6-4.22-5.18-6.39-12.4-6.48-21.25l-9.43 42.74c4.84 8.48 16.12 19.5 42.02 19.61h.39c25.45 0 46.85-10.04 61.89-29.04 13.41-16.94 20.85-39.88 20.95-64.6.15-35.57-21.55-59.56-53.99-59.69ZM99.35 731.88H39.86l-7.08 32.87h21.37L15.52 942.04l37.42.16 46.41-210.32zM468.83 792.63h-.4c-23.36 0-36.48 8.49-45.16 17.2l-9.05 41.02c7.97-17.05 21.56-26.5 38.92-26.5h.2c9.88.04 17.37 3.04 22.27 8.9 4.58 5.48 6.88 13.36 6.84 23.44-.06 14.47-4.25 28.82-11.5 39.36-5.78 8.4-16.27 18.4-33.43 18.4h-.18c-10.68-.04-18.7-3.27-23.86-9.6-4.22-5.18-6.39-12.4-6.49-21.25l-9.43 42.74c4.84 8.48 16.12 19.5 42.02 19.61h.39c25.45 0 46.85-10.04 61.89-29.04 13.41-16.94 20.85-39.88 20.95-64.6.15-35.57-21.55-59.56-53.99-59.69ZM433.49 731.88h-59.5l-7.07 32.87h21.36l-38.62 177.29 37.42.16 46.41-210.32zM576.3 933.55l-5.12-137.95h24.24c.04 42.72 1.29 98.03-.23 112.5h.2c6.01-17.66 36.87-79.93 51.79-112.5h21.8c1.31 27.96 4.19 91.36 3.25 111.32h.2c5.99-17.72 25.7-59.13 48.47-111.32h24.28l-66.72 137.95h-25.25c-.82-28.3-3.29-82.92-2.91-104.53h-.2c-8.18 23.57-35.19 76.67-48.59 104.53h-25.19ZM752.15 893.61c0 15.2 6.72 23.31 18.68 23.31 21.1 0 29.81-27.6 29.81-46.45 0-14.65-6.2-22.83-18.9-22.83-20.38 0-29.59 27.46-29.59 45.97Zm72.8-21.14c0 25.11-14.5 63.07-56.58 63.07-27.28 0-40.62-16.82-40.62-42.01 0-27.84 17.46-64.51 55.88-64.51 24.18 0 41.32 14.3 41.32 43.45ZM845.12 861.38c2.14-10.05 4.19-20.9 5.93-30.36h22.68c-.2 2.59-1.36 11.15-3.21 19.64 7.16-13.04 17.65-21.64 34.77-21.64l-4.91 23.8c-18.99.65-32.67 12.42-37.46 35.02l-9.67 45.71h-23.5l15.38-72.17ZM898.56 933.55l30.84-145.89h23.5l-30.84 145.89h-23.5zM972.85 892.59c0 15.15 6.22 23.15 18.27 23.15 18.06 0 27.49-15.71 31.58-37.15 3.73-18.78-1.69-29.77-18.3-29.77-20.58 0-31.54 24.07-31.54 43.77Zm91.63-104.93-24.85 117.85c-2 9.43-4.13 18.79-5.72 28.04h-22.74c.2-3.51.96-7.95 1.99-13.52-6.64 9.75-16.4 15.51-31.15 15.51-21.96 0-33.75-15.92-33.75-40.4 0-30.9 18.57-66.13 54.18-66.13 15.53 0 24.81 7.04 27.08 12.52l11.47-53.88h23.5Z"/></svg>
